<?xml version="1.0" encoding="utf-8"?>
<!-- Generator: Adobe Illustrator 16.0.1, SVG Export Plug-In . SVG Version: 6.00 Build 0)  -->
<!DOCTYPE svg PUBLIC "-//W3C//DTD SVG 1.1//EN" "http://www.w3.org/Graphics/SVG/1.1/DTD/svg11.dtd">
<svg version="1.1" id="Layer_1" xmlns="http://www.w3.org/2000/svg" xmlns:xlink="http://www.w3.org/1999/xlink" x="0px" y="0px"
	 width="864px" height="864px" viewBox="0 0 864 864" enable-background="new 0 0 864 864" xml:space="preserve">
<g>
	<path d="M774.432,577.666l-99.907-332.77c-4.262-14.198-19.454-25.833-33.768-25.833h-53.093
		c-14.299,0-26.021-12.183-26.021-27.029v-10.555c0-14.847,11.707-27.029,26.021-27.029h143.842
		c14.313,0,26.021-12.183,26.021-27.058v-13.363C757.541,99.183,745.848,87,731.534,87H132.466
		c-14.299,0-26.007,12.183-26.007,27.029v13.363c0,14.875,11.708,27.058,26.007,27.058h143.841
		c14.299,0,26.021,12.182,26.021,27.029v10.555c0,14.846-11.708,27.029-26.021,27.029H223.2c-14.314,0-29.491,11.635-33.768,25.833
		L89.568,577.579c-4.277,14.198-4.205,37.411,0.13,51.581l37.728,123.249c4.334,14.199,19.584,25.791,33.883,25.791h541.368
		c14.299,0,29.563-11.592,33.897-25.762l37.729-123.178C778.637,615.091,778.709,591.85,774.432,577.666z M431.985,671.438
		c-91.757,0-166.147-77.371-166.147-172.8c0-95.443,74.39-172.8,166.147-172.8s166.162,77.357,166.162,172.8
		C598.147,594.067,523.742,671.438,431.985,671.438z"/>
	<path d="M432,363.639c-8.294,0-15.02,6.725-15.02,15.019v124.257c0,8.309,6.726,15.034,15.02,15.034
		c8.295,0,15.02-6.726,15.02-15.034V378.658C447.02,370.363,440.295,363.639,432,363.639z"/>
</g>
</svg>
