<?xml version="1.0" encoding="utf-8"?>
<!-- Generator: Adobe Illustrator 16.0.1, SVG Export Plug-In . SVG Version: 6.00 Build 0)  -->
<!DOCTYPE svg PUBLIC "-//W3C//DTD SVG 1.1//EN" "http://www.w3.org/Graphics/SVG/1.1/DTD/svg11.dtd">
<svg version="1.1" id="Layer_1" xmlns="http://www.w3.org/2000/svg" xmlns:xlink="http://www.w3.org/1999/xlink" x="0px" y="0px"
	 width="864px" height="864px" viewBox="0 0 864 864" enable-background="new 0 0 864 864" xml:space="preserve">
<path d="M738.874,788.642H495.162c8.531-13.402,12.187-28.025,8.531-43.867l-62.147-363.128
	c-4.873-29.245-30.462-51.179-59.708-51.179h-6.092c12.185-9.749,19.497-25.589,19.497-42.649c0-30.464-24.372-54.835-54.834-54.835
	h-38.994l2.438-18.278c3.655-23.152,24.37-40.212,47.522-40.212h109.67v-42.65h-23.152c-15.841,0-28.026-12.185-28.026-28.026
	c0-15.842,12.185-28.027,28.026-28.027H564.62c15.842,0,28.027,12.185,28.027,28.027c0,15.841-12.186,28.026-28.027,28.026h-23.151
	v42.65h109.67c23.151,0,42.648,17.06,47.523,40.212l88.953,517.885C791.271,761.834,769.338,788.642,738.874,788.642z
	 M478.103,749.649l-62.146-363.129c-2.436-15.841-17.06-28.027-32.9-28.027h-64.583v-42.649h23.152
	c15.842,0,28.027-12.186,28.027-28.027c0-15.841-12.185-28.027-28.027-28.027H213.677c-15.841,0-28.026,12.186-28.026,28.027
	c0,15.841,12.185,28.027,28.026,28.027h23.153v42.649h-64.583c-15.841,0-30.464,12.186-32.901,28.027L77.2,749.649
	c-3.656,20.715,12.185,38.992,32.9,38.992h335.103C465.918,788.642,481.76,769.146,478.103,749.649z"/>
</svg>
